<svg viewBox="0 0 100 100" xmlns="http://www.w3.org/2000/svg">
  <defs>
    <linearGradient id="bgFinal2" x1="0%" y1="0%" x2="100%" y2="100%">
      <stop offset="0%" style="stop-color:#1a1a1a"/>
      <stop offset="100%" style="stop-color:#0d0d0d"/>
    </linearGradient>
<!--Swift Gradient-->
    <linearGradient id="swiftBelt2" x1="0%" y1="0%" x2="100%" y2="0%">
      <stop offset="0%" style="stop-color:#FFAC33"/>
      <stop offset="50%" style="stop-color:#FF9500"/>
      <stop offset="100%" style="stop-color:#F05138"/>
    </linearGradient>
  </defs>
<!--Main Background-->
  <rect x="5" y="5" width="90" height="90" rx="18" fill="url(#bgFinal2)"/>
<!--Sub Background-->
  <rect x="12" y="43" width="76" height="45" rx="4" fill="rgba(255,255,255,0.05)"/>
<!--Swift Gradient Track-->
  <rect x="14" y="76" width="72" height="9" rx="3" fill="url(#swiftBelt2)"/>
<!--Track Orientation ›››-->
  <text x="22" y="83" font-size="7" fill="rgba(0,0,0,0.3)" font-family="Arial" font-weight="bold">›</text>
  <text x="34" y="83" font-size="7" fill="rgba(0,0,0,0.3)" font-family="Arial" font-weight="bold">›</text>
  <text x="46" y="83" font-size="7" fill="rgba(0,0,0,0.3)" font-family="Arial" font-weight="bold">›</text>
  <text x="58" y="83" font-size="7" fill="rgba(0,0,0,0.3)" font-family="Arial" font-weight="bold">›</text>
  <text x="70" y="83" font-size="7" fill="rgba(0,0,0,0.3)" font-family="Arial" font-weight="bold">›</text>
<!--Small case k, centered
    ■ · · ·
    ■ · ■ ·
    ■ ■ · ·
    ■ · ■ ·-->
<!--Row 1-->
  <rect x="30" y="18" width="11" height="11" rx="2" fill="#1abc9c"/>
<!--Row 2-->
  <rect x="30" y="31" width="11" height="11" rx="2" fill="#27ae60"/>
  <rect x="58" y="31" width="11" height="11" rx="2" fill="#e67e22"/>
<!--Row 3-->
  <rect x="30" y="44" width="11" height="11" rx="2" fill="#f1c40f"/>
  <rect x="44" y="44" width="11" height="11" rx="2" fill="#f39c12"/>
<!--Row 4-->
  <rect x="30" y="57" width="11" height="11" rx="2" fill="#e74c3c"/>
  <rect x="58" y="57" width="11" height="11" rx="2" fill="#c0392b"/>
</svg>
